PathFileType	4	(X/Y/Z)	C:/Users/beibeiliu/ov580/test_trc/User2\sequence.4_training_dense_left.trc
DataRate	CameraRate	NumFrames	NumMarkers	Units	OrigDataRate	OrigDataStartFrame	OrigNumFrames
120	120	16	19	mm	120	260	296
Frame#	Time	ThumbCMC			ThumbMCP			ThumbIP			ThumbTip			IndexMCP			IndexPIP			IndexTip			MiddleMCP			MiddlePIP			MiddleTip			RingMCP			RingPIP			RingTip			PinkyMCP			PinkyPIP			PinkyTip			BackHand1			BackHand2			BackHand3	
		X0	Y0	Z0	X1	Y1	Z1	X2	Y2	Z2	X3	Y3	Z3	X4	Y4	Z4	X5	Y5	Z5	X6	Y6	Z6	X7	Y7	Z7	X8	Y8	Z8	X9	Y9	Z9	X10	Y10	Z10	X11	Y11	Z11	X12	Y12	Z12	X13	Y13	Z13	X14	Y14	Z14	X15	Y15	Z15	X16	Y16	Z16	X17	Y17	Z17	X18	Y18	Z18	
259	2.15833	-154.188	-6.84553	105.102	-131.536	-33.3783	90.677	-124.212	-64.9587	71.8524	-127.745	-92.0931	65.4646	-201.05	-32.8307	44.002	-206.428	-41.788	19.2814	-216.4	-56.6301	-1.63544	-199.655	-65.5613	48.8299	-174.443	-91.2772	43.5499	-142.182	-86.098	73.3015	-198.451	-85.0979	67.2813	-172.786	-100.426	67.2823	-144.707	-86.1126	91.0311	-202.332	-88.3535	90.3647	-169.147	-101.409	94.5769	-153.095	-76.4782	109.499	-223.484	-37.5807	111.047	-218.236	-16.7612	136.481	-200.767	-1.07503	103.073	
260	2.16667	-158.867	-9.14592	104.462	-135.516	-35.8733	88.5015	-128.152	-67.0534	73.0499	-134.24	-93.6371	69.3704	-207.886	-36.8784	43.4639	-215.472	-49.0888	24.8883	-226.162	-60.3223	0.685958	-204.52	-67.0681	50.8474	-179.491	-93.7289	45.0457	-146.874	-88.4924	73.004	-203.232	-82.0009	68.8527	-176.954	-101.375	67.0936	-150.34	-91.1594	90.4748	-203.789	-94.8783	90.5362	-174.755	-102.865	92.3118	-154.626	-77.7183	109.648	-225.299	-39.4763	112.662	-221.373	-18.0531	138.24	-205.415	-6.14831	106.8	
261	2.175	-158.037	-9.64175	109.429	-137.356	-41.0691	91.9098	-135	-74.6512	74.6837	-144.575	-99.2693	69.9795	-203.93	-30.9863	41.0188	-213.536	-43.5546	17.5222	-226.348	-58.8707	-0.656248	-207.384	-65.594	49.5458	-184.277	-95.6069	48.2457	-157.398	-93.823	74.7212	-210.09	-81.498	70.2947	-183.939	-105.492	70.6935	-156.083	-95.3756	90.5305	-213.778	-88.7972	91.3663	-184.019	-104.173	92.7291	-163.026	-83.3306	109.168	-225.893	-36.5563	108.001	-224.271	-16.7155	136.562	-201.579	0.153241	104.611	
262	2.18333	-153.972	-14.2508	114.311	-142.063	-47.8986	97.2739	-138.137	-77.5291	82.6146	-156.847	-104.906	71.1573	-197.763	-26.8438	42.2436	-201.51	-34.3053	13.9987	-213.74	-46.9326	-8.40446	-206.163	-56.7991	50.5163	-188.061	-90.2215	45.1981	-164.436	-95.2207	78.7943	-213.905	-75.6528	66.8354	-192.189	-101.81	69.0115	-166.295	-98.7094	90.1828	-223.157	-84.4048	87.5897	-193.654	-103.987	92.1852	-172.576	-92.3424	107.879	-222.887	-23.3559	108.218	-221.467	-7.25198	139.893	-196.719	0.464326	109.594	
263	2.19167	-147.349	-20.8221	120.13	-139.979	-57.254	100.553	-145.529	-87.6498	83.0469	-166.616	-105.074	74.0981	-181.366	-20.4691	42.1921	-185.092	-26.5772	13.6816	-188.551	-33.2215	-10.3833	-202.748	-49.4753	48.45	-191.75	-87.2981	44.7519	-170.912	-95.4951	80.9343	-213.803	-64.535	61.8646	-203.683	-95.0376	64.1327	-177.028	-99.8642	89.3201	-227.336	-71.5919	83.8892	-204.305	-97.7289	86.3507	-182.732	-92.4382	108.89	-221.505	-19.0022	106.576	-216.671	-2.5944	138.972	-185.677	2.57784	107.295	
264	2.2	-150.704	-27.8457	124.976	-144.738	-62.7555	109.41	-154.448	-94.4856	84.4887	-174.831	-108.337	75.2435	-174.569	-21.5252	44.4641	-168.695	-25.4156	20.1221	-171.85	-30.5023	-7.53128	-202.684	-48.4365	45.2928	-193.392	-82.827	42.7901	-178.417	-95.8939	77.1241	-217.508	-58.3301	61.5625	-206.35	-90.5198	61.1131	-187.14	-99.4945	88.3805	-232.154	-66.999	79.6144	-216.649	-93.7649	82.7228	-194.662	-92.4986	103.979	-214.208	-12.7469	104.768	-212.08	0.580444	135.36	-180.834	3.84364	112.627	
265	2.20833	-149.858	-34.5687	122.169	-151.733	-67.7792	110.424	-160.213	-97.0786	89.0585	-185.605	-107.477	76.7456	-170.467	-24.0566	48.9703	-165.286	-29.651	16.9984	-166.523	-34.6137	-6.0229	-199.768	-43.3315	47.1231	-202.304	-79.4671	42.1827	-188.404	-96.2784	77.9256	-217.426	-56.4149	58.6171	-216.16	-88.5985	62.5228	-197.88	-99.4056	88.521	-235.447	-58.9844	79.8987	-220.969	-91.362	84.8597	-200.8	-92.2343	107.788	-214.033	-6.89841	105.688	-209.48	5.48775	133.544	-174.56	2.84053	111.651	
266	2.21667	-152.024	-36.8344	122.59	-158.192	-70.2246	108.811	-169.874	-97.9626	90.2652	-195.779	-106.966	78.2987	-173.437	-25.0594	48.3189	-168.819	-30.7016	21.5281	-170.029	-36.7744	-4.98779	-206.684	-42.1933	48.0823	-207.61	-79.5926	43.4201	-194.274	-96.7738	80.8014	-221.891	-51.9733	60.465	-222.029	-84.7894	62.969	-204.102	-99.3824	95.4909	-238.404	-56.993	80.1252	-229.319	-89.5688	86.4076	-206.037	-92.588	107.045	-213.07	-4.87348	102.969	-209.551	6.43036	137.272	-174.413	1.81953	113.321	
267	2.225	-154.486	-38.0322	122.689	-161.714	-74.0546	107.381	-179.32	-97.8783	93.1477	-205.366	-109.206	78.9273	-178.711	-24.9218	47.8485	-180.531	-32.4976	17.2233	-188.246	-37.3268	-9.36526	-211.692	-44.0331	47.1125	-215.214	-77.8742	45.1346	-200.176	-97.3152	79.1204	-231.016	-49.4319	65.0743	-227.673	-85.2211	66.4661	-212.007	-97.6631	93.5928	-242.099	-52.4791	83.7458	-235.304	-85.4033	87.9143	-213.225	-93.4719	108.387	-218.669	-3.20396	106.936	-208.819	8.19999	140.206	-177.184	0.947281	113.979	
268	2.23333	-156.326	-38.4488	121.443	-169.331	-72.7001	107.363	-186.734	-101.637	88.1614	-211.637	-108.905	82.4841	-187.397	-26.154	42.8552	-194.412	-30.6173	21.3573	-207.209	-36.3492	-7.93078	-220.347	-43.3494	50.0879	-224.291	-81.5664	50.3822	-209.092	-96.9944	78.695	-238.083	-50.8496	67.3912	-234.272	-82.8008	68.4333	-217.178	-95.3169	93.6303	-251.815	-52.6529	88.3043	-240.865	-83.8303	89.7511	-215.777	-90.2793	111.678	-220.555	-2.34505	108.476	-207.199	9.27456	140.736	-182.266	1.19119	109.643	
269	2.24167	-156.832	-39.7165	120.228	-171.252	-76.7317	104.388	-190.803	-100.757	90.6401	-221.87	-109.036	81.417	-198.412	-26.2	47.9213	-212.402	-30.7785	23.2827	-224.695	-37.5595	-1.23306	-227.856	-41.9746	55.3148	-232.858	-78.5573	51.157	-214.731	-96.5933	82.4176	-240.738	-53.047	66.7797	-238.675	-86.3177	72.6119	-219.147	-96.1202	102.186	-254.429	-50.3715	91.6762	-246.44	-84.3415	93.3676	-223.935	-91.9961	112.015	-222.275	-4.81399	111.257	-206.817	9.73747	138.227	-180.02	-0.392916	111.766	
270	2.25	-164.531	-38.4199	119.401	-175.087	-77.3059	103.756	-194.362	-103.421	90.225	-222.145	-110.957	84.9405	-208.278	-26.4218	48.6281	-226.148	-32.8101	28.348	-240.798	-39.1455	6.94263	-232.581	-47.1843	53.4953	-237.849	-81.8719	54.9761	-213.225	-96.1707	87.7161	-245.824	-53.8991	70.9858	-247.412	-85.795	76.1345	-218.356	-96.063	103.061	-257.19	-51.4973	95.0455	-249.669	-83.4763	93.6859	-223.226	-94.4782	116.506	-226.026	-5.82291	111.85	-210.755	6.48549	140.377	-186.253	0.709554	110.159	
271	2.25833	-164.554	-39.3555	117.201	-175.701	-78.2467	103.764	-194.506	-104.513	91.8938	-223.578	-108.945	89.3255	-213.572	-28.8407	47.7348	-230.045	-36.6209	28.0981	-251.796	-42.9691	9.77219	-237.701	-50.0541	56.5744	-237.321	-84.2433	55.6211	-216.199	-98.5824	86.2135	-247.422	-54.5712	75.0639	-244.114	-88.6309	77.497	-222.815	-97.6973	104.498	-257.065	-55.0126	95.752	-249.586	-89.7647	99.7275	-223.183	-92.9454	119.269	-230.672	-7.67839	111.389	-211.717	7.372	139.906	-189.549	-2.79098	109.255	
272	2.26667	-162.617	-39.6256	120.289	-175.037	-74.426	108.823	-196.144	-105.1	91.3545	-218.427	-113.476	89.4423	-214.991	-30.7261	53.598	-228.195	-39.1785	32.0361	-248.966	-46.2568	14.6513	-237.211	-50.5826	57.485	-238.041	-88.0989	61.8618	-215.374	-99.3972	87.1843	-248.302	-58.8377	73.9886	-245.612	-88.0939	76.1511	-221.016	-99.513	102.774	-258.899	-54.1392	97.4624	-251.448	-89.312	98.8812	-229.334	-96.063	118.265	-229.648	-6.51341	115.753	-211.114	7.81148	141.481	-188.266	-2.66383	111.896	
273	2.275	-162.514	-39.2944	120.364	-171.411	-74.4346	111.231	-191.68	-101.9	94.4086	-214.101	-113.672	88.4204	-202.896	-31.4222	50.8729	-216.794	-40.9542	26.9269	-232.958	-48.7821	4.63712	-229.084	-49.2245	56.6287	-234.913	-85.5246	56.1827	-212.253	-101.394	86.2453	-247.198	-59.1031	72.0999	-241.916	-88.5615	72.89	-219.356	-102.52	102.839	-254.738	-54.6737	93.9658	-249.309	-91.196	96.6628	-225.655	-99.0598	112.853	-227.588	-6.8527	114.12	-212.79	6.58293	141.763	-190.385	-2.74693	113.309	
274	2.28333	-162.454	-38.3558	126.112	-164.906	-75.5555	112.03	-181.311	-104.68	92.2601	-205.355	-116.48	83.704	-196.045	-31.7735	50.7145	-201.866	-39.5947	24.7164	-212.385	-47.5014	-1.9954	-220.114	-49.3334	52.6357	-219.663	-87.385	50.4962	-206.37	-102.483	83.614	-239.931	-59.2315	68.6514	-236.847	-90.4175	69.93	-217.765	-104.27	98.1215	-252.734	-59.3577	88.6687	-244.504	-91.8827	91.7826	-221.061	-100.789	113.573	-223.316	-10.8215	110.123	-214.382	3.06583	137.378	-186.721	-1.37785	116.191	
